<?xml version="1.0" encoding="UTF-8"?>
<svg xmlns="http://www.w3.org/2000/svg" viewBox="0 0 1500 1120"
     font-family="'Helvetica Neue', Arial, sans-serif">

  <!-- ======================================================================
       Background + title
       ====================================================================== -->
  <rect width="1500" height="1120" fill="#f4ecd6"/>

  <text x="750" y="42" text-anchor="middle" font-size="26" font-weight="bold" fill="#222">
    Radio Oracle — Jetson Orin Nano Wiring
  </text>
  <text x="750" y="68" text-anchor="middle" font-size="14" fill="#555">
    Common-anode RGB LED · Momentary Action Button · Power Toggle · Volume Pot — buttons + pot read via ADS1115
  </text>
  <text x="750" y="88" text-anchor="middle" font-size="12" fill="#777" font-style="italic">
    Pin numbers are BCM (matches config/settings.py); header position numbers shown in parentheses
  </text>

  <!-- ======================================================================
       Reusable styles + gradients
       ====================================================================== -->
  <defs>
    <linearGradient id="boardGrad" x1="0" y1="0" x2="0" y2="1">
      <stop offset="0%" stop-color="#1f4d2c"/>
      <stop offset="100%" stop-color="#0e3318"/>
    </linearGradient>
    <linearGradient id="goldPin" x1="0" y1="0" x2="1" y2="1">
      <stop offset="0%" stop-color="#ffe48a"/>
      <stop offset="100%" stop-color="#b78a1a"/>
    </linearGradient>
    <radialGradient id="rgbDome" cx="0.5" cy="0.4" r="0.7">
      <stop offset="0%"  stop-color="#fff"     stop-opacity="0.9"/>
      <stop offset="35%" stop-color="#ffd6f6" stop-opacity="0.8"/>
      <stop offset="65%" stop-color="#a3e3ff" stop-opacity="0.7"/>
      <stop offset="100%" stop-color="#bff5c1" stop-opacity="0.7"/>
    </radialGradient>
    <!-- Halo for any text that may sit over a wire. Use via class="halo". -->
    <style>
      .halo {
        paint-order: stroke fill;
        stroke: #f4ecd6;
        stroke-width: 3.5;
        stroke-linejoin: round;
      }
      .halo-light {
        paint-order: stroke fill;
        stroke: #0a0a0a;
        stroke-width: 3;
        stroke-linejoin: round;
      }
      .pin-label-used {
        font-size: 10px;
        font-weight: bold;
      }
      .pin-label-faint {
        font-size: 9px;
        fill: #888;
      }
    </style>
  </defs>

  <!-- ======================================================================
       Jetson board outline (everything BUT the header)
       ====================================================================== -->
  <g id="jetson-board">
    <rect x="60" y="120" width="380" height="780" rx="14"
          fill="url(#boardGrad)" stroke="#0a2410" stroke-width="2"/>
    <text x="250" y="155" text-anchor="middle" font-size="20" font-weight="bold" fill="#fff">
      Jetson Orin Nano Super
    </text>
    <text x="250" y="178" text-anchor="middle" font-size="12" fill="#cdd">
      8 GB · 40-pin GPIO header (J12)
    </text>

    <!-- SoC -->
    <rect x="105" y="220" width="170" height="170" rx="6" fill="#1a1a1a" stroke="#444"/>
    <text x="190" y="313" text-anchor="middle" font-size="13" fill="#aaa">NVIDIA Tegra</text>

    <!-- USB-A stack (board feature, no GPIO wiring; DAC plugs in here) -->
    <g transform="translate(80, 740)">
      <rect x="0" y="0" width="70" height="55" rx="3" fill="#222" stroke="#000"/>
      <rect x="6" y="8"  width="58" height="18" fill="#888"/>
      <rect x="6" y="32" width="58" height="18" fill="#888"/>
      <text x="35" y="78"  text-anchor="middle" font-size="10" fill="#ccc">USB-A ×2</text>
      <text x="35" y="92"  text-anchor="middle" font-size="9" fill="#999" font-style="italic">DAC plugs in here</text>
    </g>

    <rect x="170" y="745" width="80" height="35" rx="3" fill="#222" stroke="#000"/>
    <text x="210" y="800" text-anchor="middle" font-size="10" fill="#ccc">RJ45</text>
    <rect x="280" y="750" width="40" height="25" rx="3" fill="#222" stroke="#000"/>
    <text x="300" y="797" text-anchor="middle" font-size="10" fill="#ccc">DC-in</text>
  </g>

  <!-- ======================================================================
       Wires — drawn BEFORE the header so the header rect can mask the
       vertical bus segments inside it. Trunk-y values land in the gap
       between two pin-label rows so labels stay legible.

       Color key:
         #d83232  3.3 V power (also feeds LED1 common anode and the two pull-ups)
         #1a1a1a  GND
         #9b59b6  I²C SDA  (BCM 2)
         #8b572a  I²C SCL  (BCM 3)
         #1abc9c  Power toggle → U1.A2   (was BCM 17, now via ADS)
         #e6c200  Action button → U1.A1  (was BCM 18, now via ADS)
         #ff4f8b  RGB R cathode (BCM 23, drive LOW = lit on common-anode LED)
         #2ecc71  RGB G cathode (BCM 24)
         #3498db  RGB B cathode (BCM 25)
         #e67e22  Pot wiper → ADS A0
       ====================================================================== -->
  <g id="wires" fill="none" stroke-width="3.5" stroke-linecap="round" stroke-linejoin="round">

    <!-- ============ Power and I²C from the left header column ============ -->

    <!-- 3.3 V (pin 1, y=218) → ADS1115 VDD (1130, 790).
         This rail also picks up junctions for: LED1 common anode (x=1110),
         R5 pull-up (x=1090), R4 pull-up (x=1080), pot CW (x=1130). -->
    <path d="M 368 218 V 720 H 1130 V 790" stroke="#d83232"/>

    <!-- I²C SDA (pin 3) → ADS1115 SDA, I²C SCL (pin 5) → ADS1115 SCL -->
    <path d="M 368 243 V 730 H 1170 V 790" stroke="#9b59b6"/>
    <path d="M 368 268 V 740 H 1200 V 790" stroke="#8b572a"/>

    <!-- ============ GND rail and its branches.
         No longer feeds LED1 (common-anode now goes to +3V3 instead).
         Switches are flipped so the GND side is the WEST terminal. ============ -->

    <!-- GND main vertical rail at x=660, from pin 6 trunk down to y=1010 -->
    <path d="M 412 268 V 280 H 660 V 1010" stroke="#1a1a1a"/>
    <!-- GND → action button WEST terminal (790, 530) -->
    <path d="M 660 530 H 790"   stroke="#1a1a1a"/>
    <!-- GND → power toggle WEST terminal (790, 700) -->
    <path d="M 660 700 H 790"   stroke="#1a1a1a"/>
    <!-- GND bottom: rail → pot CCW (1020, 875) and ADS GND (1230, 790) -->
    <path d="M 660 1010 H 1230 V 790" stroke="#1a1a1a"/>
    <path d="M 1020 875 V 1010"       stroke="#1a1a1a"/>

    <!-- ============ Switch signal wires + pull-ups.
         Each switch's EAST terminal carries the analog signal east, then
         dives south past the toggle/pot to enter U1's A1 / A2 pin on the
         LEFT edge of the ADS1115 box. A 10 kΩ pull-up resistor taps each
         signal to the +3V3 rail at y=720. ============ -->

    <!-- Action button signal (yellow): right terminal (1010, 530) → U1.A1 (1115, 815) -->
    <path d="M 1010 530 H 1100 V 815 H 1115" stroke="#e6c200"/>
    <!-- R5 pull-up: tap at (1100, 600) → west jog → R5 → south to +3V3 rail (1090, 720) -->
    <path d="M 1100 600 H 1090" stroke="#e6c200"/>
    <path d="M 1090 620 V 720"  stroke="#d83232"/>

    <!-- Power toggle signal (teal): right terminal (1010, 700) → U1.A2 (1115, 845) -->
    <path d="M 1010 700 H 1070 V 845 H 1115" stroke="#1abc9c"/>
    <!-- R4 pull-up: tap at (1070, 760) → west into R4 → north to +3V3 rail (1080, 720) -->
    <path d="M 1080 720 V 740"  stroke="#d83232"/>
    <path d="M 1080 760 H 1070" stroke="#1abc9c"/>

    <!-- Junctions where pull-ups + signals + rail meet -->
    <circle cx="1100" cy="600" r="3.5" fill="#222"/>
    <circle cx="1090" cy="720" r="3.5" fill="#d83232"/>
    <circle cx="1070" cy="760" r="3.5" fill="#222"/>
    <circle cx="1080" cy="720" r="3.5" fill="#d83232"/>

    <!-- ============ RGB LED — common-anode now.
         BCM 23/24/25 → R1/R2/R3 → each colour's CATHODE.
         The common ANODE exits east from the bulb at (1020, 460) and
         joins the +3V3 rail at (1110, 720). ============ -->

    <!-- RGB cathode drives (BCM 23/24/25) → top of each resistor lead at y=350 -->
    <path d="M 412 393 V 405 H 920 V 350" stroke="#ff4f8b"/>
    <path d="M 412 418 V 430 H 940 V 350" stroke="#2ecc71"/>
    <path d="M 412 468 V 480 H 960 V 350" stroke="#3498db"/>

    <!-- LED1 common anode (lead exits east at (1020, 460)) → +3V3 rail at (1110, 720) -->
    <path d="M 1020 460 H 1110 V 720" stroke="#d83232"/>
    <circle cx="1110" cy="720" r="3.5" fill="#d83232"/>

    <!-- ============ Potentiometer ============ -->
    <!-- Pot wiper → ADS A0 (on the BOTTOM edge of ADS at y=870) -->
    <path d="M 990 875 H 1230 V 870" stroke="#e67e22"/>
    <!-- Pot CW (left terminal, +3V3) joins the 3V3 rail -->
    <path d="M 960 875 V 935 H 1130 V 790" stroke="#d83232"/>
  </g>

  <!-- ======================================================================
       Pull-up resistors R4, R5 — drawn AFTER the wires so the resistor
       body sits on top of the wire tap. Each is a small 4-band resistor
       in classic ¼ W tan with a brown-black-orange-(brown) color code.
       ====================================================================== -->
  <g id="pull-ups" font-size="9" fill="#444">
    <!-- R5 = 10 kΩ pull-up for the action button (yellow signal → +3V3) -->
    <g transform="translate(1090, 600)">
      <rect x="-4" y="0" width="8" height="20" rx="1" fill="#dcb67a" stroke="#222"/>
      <rect x="-4" y="3"  width="8" height="2" fill="#5a3a05"/>
      <rect x="-4" y="7"  width="8" height="2" fill="#000"/>
      <rect x="-4" y="11" width="8" height="2" fill="orange"/>
      <rect x="-4" y="15" width="8" height="2" fill="#5a3a05"/>
      <text x="10" y="14" class="halo">R5 · 10 kΩ</text>
    </g>
    <!-- R4 = 10 kΩ pull-up for the power toggle (teal signal → +3V3) -->
    <g transform="translate(1080, 740)">
      <rect x="-4" y="0" width="8" height="20" rx="1" fill="#dcb67a" stroke="#222"/>
      <rect x="-4" y="3"  width="8" height="2" fill="#5a3a05"/>
      <rect x="-4" y="7"  width="8" height="2" fill="#000"/>
      <rect x="-4" y="11" width="8" height="2" fill="orange"/>
      <rect x="-4" y="15" width="8" height="2" fill="#5a3a05"/>
      <text x="10" y="14" class="halo">R4 · 10 kΩ</text>
    </g>
  </g>

  <!-- ======================================================================
       Right-side components (drawn on top of wire endpoints so the
       wires terminate "into" each component visually).
       ====================================================================== -->

  <!-- ============ RGB LED with three resistors above ============ -->
  <g id="rgb-led" transform="translate(940,380)">
    <!-- three vertical resistors (one per channel) sitting above the bulb -->
    <!-- R resistor at x=-20 -->
    <g transform="translate(-20,0)">
      <line x1="0" y1="-30" x2="0" y2="-12" stroke="#999" stroke-width="2"/>
      <rect x="-9" y="-12" width="18" height="40" rx="2" fill="#dcb67a" stroke="#222"/>
      <rect x="-9" y="-6"  width="18" height="3" fill="#000"/>
      <rect x="-9" y="2"   width="18" height="3" fill="orange"/>
      <rect x="-9" y="10"  width="18" height="3" fill="orange"/>
      <rect x="-9" y="18"  width="18" height="3" fill="brown"/>
      <line x1="0" y1="28" x2="0" y2="46" stroke="#999" stroke-width="2"/>
      <text x="-15" y="-32" font-size="9" fill="#444">R</text>
    </g>
    <!-- G resistor at x=0 -->
    <g transform="translate(0,0)">
      <line x1="0" y1="-30" x2="0" y2="-12" stroke="#999" stroke-width="2"/>
      <rect x="-9" y="-12" width="18" height="40" rx="2" fill="#dcb67a" stroke="#222"/>
      <rect x="-9" y="-6"  width="18" height="3" fill="#000"/>
      <rect x="-9" y="2"   width="18" height="3" fill="orange"/>
      <rect x="-9" y="10"  width="18" height="3" fill="orange"/>
      <rect x="-9" y="18"  width="18" height="3" fill="brown"/>
      <line x1="0" y1="28" x2="0" y2="46" stroke="#999" stroke-width="2"/>
      <text x="-15" y="-32" font-size="9" fill="#444">G</text>
    </g>
    <!-- B resistor at x=20 -->
    <g transform="translate(20,0)">
      <line x1="0" y1="-30" x2="0" y2="-12" stroke="#999" stroke-width="2"/>
      <rect x="-9" y="-12" width="18" height="40" rx="2" fill="#dcb67a" stroke="#222"/>
      <rect x="-9" y="-6"  width="18" height="3" fill="#000"/>
      <rect x="-9" y="2"   width="18" height="3" fill="orange"/>
      <rect x="-9" y="10"  width="18" height="3" fill="orange"/>
      <rect x="-9" y="18"  width="18" height="3" fill="brown"/>
      <line x1="0" y1="28" x2="0" y2="46" stroke="#999" stroke-width="2"/>
      <text x="-15" y="-32" font-size="9" fill="#444">B</text>
    </g>
    <text x="0" y="-44" text-anchor="middle" font-size="9" fill="#444">3 × 330 Ω</text>

    <!-- LED bulb with rainbow gradient + R/G/B color hints inside -->
    <ellipse cx="0" cy="80" rx="55" ry="48" fill="url(#rgbDome)" stroke="#444" stroke-width="2"/>
    <circle cx="-22" cy="78" r="11" fill="#ff4f8b" opacity="0.85"/>
    <circle cx="0"   cy="86" r="11" fill="#2ecc71" opacity="0.85"/>
    <circle cx="22"  cy="78" r="11" fill="#3498db" opacity="0.85"/>
    <ellipse cx="-15" cy="64" rx="14" ry="8" fill="#fff" opacity="0.45"/>
    <!-- common anode lead exits the bulb to the east (relative (55,80) →
         (80,80)); joins the +3V3 rail via the red wire over to (1110,720). -->
    <line x1="55" y1="80" x2="80" y2="80" stroke="#bbb" stroke-width="3"/>
    <text x="60" y="72" font-size="10" fill="#222" class="halo">anode → +3V3</text>

    <text x="0" y="160" text-anchor="middle" font-size="14" font-weight="bold" fill="#222">RGB LED</text>
    <text x="0" y="177" text-anchor="middle" font-size="10" fill="#666">8 mm common-anode (4 leads)</text>
    <text x="0" y="192" text-anchor="middle" font-size="10" fill="#666" font-style="italic">color encodes mode · firmware drives active-LOW</text>
  </g>

  <!-- ============ Action button (momentary) ============ -->
  <g id="action-button" transform="translate(900,530)">
    <rect x="-110" y="-40" width="220" height="80" rx="8" fill="#222" stroke="#000" stroke-width="2"/>
    <circle cx="0" cy="0" r="22" fill="#a92" stroke="#5a3a05" stroke-width="3"/>
    <circle cx="0" cy="0" r="14" fill="#c93"/>
    <text x="0" y="58" text-anchor="middle" font-size="13" font-weight="bold" fill="#222">Action Button (momentary)</text>
    <text x="0" y="74" text-anchor="middle" font-size="10" fill="#666">short press: next track / action</text>
    <text x="0" y="89" text-anchor="middle" font-size="10" fill="#666">long press (≥ 1 s): toggle Librarian mode</text>
    <line x1="-90" y1="0" x2="-110" y2="0" stroke="#bbb" stroke-width="3"/>
    <text x="-115" y="-12" text-anchor="end" font-size="10" fill="#222" class="halo">to GND</text>
    <line x1="90"  y1="0" x2="110"  y2="0" stroke="#bbb" stroke-width="3"/>
    <text x="115" y="-12" font-size="10" fill="#222" class="halo">to U1.A1 (+ R5 to 3V3)</text>
  </g>

  <!-- ============ Power toggle switch (SPST) ============ -->
  <g id="power-toggle" transform="translate(900,700)">
    <rect x="-110" y="-30" width="220" height="60" rx="6" fill="#2a2a2a" stroke="#000" stroke-width="2"/>
    <rect x="-60" y="-15" width="120" height="30" rx="3" fill="#444" stroke="#222"/>
    <rect x="0" y="-12" width="55" height="24" rx="2" fill="#888" stroke="#222"/>
    <text x="-30" y="5" text-anchor="middle" font-size="11" fill="#aaa">OFF</text>
    <text x="28"  y="5" text-anchor="middle" font-size="11" fill="#fff" font-weight="bold">ON</text>
    <text x="0" y="50" text-anchor="middle" font-size="13" font-weight="bold" fill="#222">Power Toggle Switch</text>
    <text x="0" y="64" text-anchor="middle" font-size="10" fill="#666">closed = device on (radio active) · open = standby</text>
    <line x1="-90" y1="0" x2="-110" y2="0" stroke="#bbb" stroke-width="3"/>
    <text x="-115" y="-12" text-anchor="end" font-size="10" fill="#222" class="halo">to GND</text>
    <line x1="90"  y1="0" x2="110"  y2="0" stroke="#bbb" stroke-width="3"/>
    <text x="115" y="-12" font-size="10" fill="#222" class="halo">to U1.A2 (+ R4 to 3V3)</text>
  </g>

  <!-- ============ Volume potentiometer ============ -->
  <g id="pot" transform="translate(990,830)">
    <circle cx="0" cy="0" r="34" fill="#5a4632" stroke="#1a0e00" stroke-width="3"/>
    <circle cx="0" cy="0" r="24" fill="#3a2a18"/>
    <line x1="0" y1="0" x2="18" y2="-18" stroke="#fff8d0" stroke-width="4" stroke-linecap="round"/>
    <text x="0" y="58" text-anchor="middle" font-size="12" font-weight="bold" fill="#222">Volume Potentiometer</text>
    <text x="0" y="73" text-anchor="middle" font-size="10" fill="#666">10 kΩ linear · 3 terminal</text>
    <line x1="-30" y1="30" x2="-30" y2="45" stroke="#bbb" stroke-width="2"/>
    <line x1="0"   y1="34" x2="0"   y2="45" stroke="#bbb" stroke-width="2"/>
    <line x1="30"  y1="30" x2="30"  y2="45" stroke="#bbb" stroke-width="2"/>
    <text x="-30" y="40" text-anchor="middle" font-size="9" fill="#fff">CW</text>
    <text x="0"   y="40" text-anchor="middle" font-size="9" fill="#fff">W</text>
    <text x="30"  y="40" text-anchor="middle" font-size="9" fill="#fff">CCW</text>
  </g>

  <!-- ============ ADS1115 ADC ============ -->
  <g id="ads1115" transform="translate(1180,830)">
    <rect x="-65" y="-40" width="130" height="80" rx="4" fill="#1f3a5a" stroke="#000" stroke-width="2"/>
    <text x="0" y="-15" text-anchor="middle" font-size="13" font-weight="bold" fill="#fff">ADS1115</text>
    <text x="0" y="2"   text-anchor="middle" font-size="10" fill="#cdd">16-bit I²C ADC</text>
    <text x="0" y="16"  text-anchor="middle" font-size="8"  fill="#9bf">A0 ← pot · A1 ← button · A2 ← power</text>
    <g font-size="8" fill="#fff">
      <circle cx="-50" cy="-40" r="3" fill="#d83232"/><text x="-50" y="-46" text-anchor="middle">VDD</text>
      <circle cx="-10" cy="-40" r="3" fill="#9b59b6"/><text x="-10" y="-46" text-anchor="middle">SDA</text>
      <circle cx="20"  cy="-40" r="3" fill="#8b572a"/><text x="20"  y="-46" text-anchor="middle">SCL</text>
      <circle cx="50"  cy="-40" r="3" fill="#1a1a1a"/><text x="50"  y="-46" text-anchor="middle">GND</text>
      <!-- Analog inputs on the LEFT edge: A1 = button (yellow), A2 = toggle (teal) -->
      <circle cx="-65" cy="-15" r="3" fill="#e6c200"/><text x="-58" y="-12">A1</text>
      <circle cx="-65" cy="15"  r="3" fill="#1abc9c"/><text x="-58" y="18">A2</text>
      <!-- A0 = pot wiper (still on the bottom edge) -->
      <circle cx="50"  cy="40"  r="3" fill="#e67e22"/><text x="50"  y="55"  text-anchor="middle">A0</text>
    </g>
  </g>

  <!-- ======================================================================
       40-pin header — drawn LAST among the board parts so it covers the
       wire bus segments running through it. Pin labels carry .halo so
       any wire that does pass under them is hidden behind a soft outline.
       ====================================================================== -->
  <g id="header" transform="translate(360,210)">
    <rect x="-8" y="-12" width="80" height="510" fill="#0a0a0a" stroke="#000"/>
    <text x="32" y="-22" text-anchor="middle" font-size="11" fill="#ccc">40-pin J12</text>

    <!-- Row 0  pin 1=3V3*, 2=5V -->
    <g transform="translate(0,8)">
      <circle cx="8"  cy="0" r="6" fill="url(#goldPin)" stroke="#5a3"/>
      <circle cx="52" cy="0" r="6" fill="url(#goldPin)" stroke="#444"/>
      <text x="-12" y="4" text-anchor="end" class="pin-label-used halo" fill="#9f9">3V3 (1)</text>
      <text x="74"  y="4" class="pin-label-faint halo">(2) 5V</text>
    </g>
    <!-- Row 1  pin 3=BCM 2 SDA*, 4=5V -->
    <g transform="translate(0,33)">
      <circle cx="8"  cy="0" r="6" fill="url(#goldPin)" stroke="#a5f"/>
      <circle cx="52" cy="0" r="6" fill="url(#goldPin)" stroke="#444"/>
      <text x="-12" y="4" text-anchor="end" class="pin-label-used halo" fill="#caf">BCM 2 SDA (3)</text>
      <text x="74"  y="4" class="pin-label-faint halo">(4) 5V</text>
    </g>
    <!-- Row 2  pin 5=BCM 3 SCL*, 6=GND* -->
    <g transform="translate(0,58)">
      <circle cx="8"  cy="0" r="6" fill="url(#goldPin)" stroke="#a83"/>
      <circle cx="52" cy="0" r="6" fill="url(#goldPin)" stroke="#000"/>
      <text x="-12" y="4" text-anchor="end" class="pin-label-used halo" fill="#fc9">BCM 3 SCL (5)</text>
      <text x="74"  y="4" class="pin-label-used halo" fill="#fff">(6) GND</text>
    </g>
    <!-- Row 3 -->
    <g transform="translate(0,83)">
      <circle cx="8"  cy="0" r="5" fill="#666"/>
      <circle cx="52" cy="0" r="5" fill="#666"/>
      <text x="-12" y="4" text-anchor="end" class="pin-label-faint halo">BCM 4 (7)</text>
      <text x="74"  y="4" class="pin-label-faint halo">(8) TX</text>
    </g>
    <!-- Row 4 -->
    <g transform="translate(0,108)">
      <circle cx="8"  cy="0" r="5" fill="#666"/>
      <circle cx="52" cy="0" r="5" fill="#666"/>
      <text x="-12" y="4" text-anchor="end" class="pin-label-faint halo">GND (9)</text>
      <text x="74"  y="4" class="pin-label-faint halo">(10) RX</text>
    </g>
    <!-- Row 5  pin 11=BCM 17 (now unused), 12=BCM 18 (now unused).
         Switches read through U1.A1 / U1.A2 instead of GPIO. -->
    <g transform="translate(0,133)">
      <circle cx="8"  cy="0" r="5" fill="#666"/>
      <circle cx="52" cy="0" r="5" fill="#666"/>
      <text x="-12" y="4" text-anchor="end" class="pin-label-faint halo">BCM 17 (11) · unused</text>
      <text x="74"  y="4" class="pin-label-faint halo">(12) BCM 18 · unused</text>
    </g>
    <!-- Row 6  pin 14=GND -->
    <g transform="translate(0,158)">
      <circle cx="8"  cy="0" r="5" fill="#666"/>
      <circle cx="52" cy="0" r="5" fill="#666"/>
      <text x="-12" y="4" text-anchor="end" class="pin-label-faint halo">BCM 27 (13)</text>
      <text x="74"  y="4" class="pin-label-faint halo">(14) GND</text>
    </g>
    <!-- Row 7  pin 16=BCM 23 RGB R* -->
    <g transform="translate(0,183)">
      <circle cx="8"  cy="0" r="5" fill="#666"/>
      <circle cx="52" cy="0" r="6" fill="url(#goldPin)" stroke="#ff4f8b"/>
      <text x="-12" y="4" text-anchor="end" class="pin-label-faint halo">BCM 22 (15)</text>
      <text x="74"  y="4" class="pin-label-used halo" fill="#ff9bbf">(16) BCM 23 RGB R</text>
    </g>
    <!-- Row 8  pin 18=BCM 24 RGB G* -->
    <g transform="translate(0,208)">
      <circle cx="8"  cy="0" r="5" fill="#666"/>
      <circle cx="52" cy="0" r="6" fill="url(#goldPin)" stroke="#2ecc71"/>
      <text x="-12" y="4" text-anchor="end" class="pin-label-faint halo">3V3 (17)</text>
      <text x="74"  y="4" class="pin-label-used halo" fill="#9fe9b0">(18) BCM 24 RGB G</text>
    </g>
    <!-- Row 9 -->
    <g transform="translate(0,233)">
      <circle cx="8"  cy="0" r="5" fill="#666"/>
      <circle cx="52" cy="0" r="5" fill="#666"/>
      <text x="-12" y="4" text-anchor="end" class="pin-label-faint halo">MOSI (19)</text>
      <text x="74"  y="4" class="pin-label-faint halo">(20) GND</text>
    </g>
    <!-- Row 10  pin 22=BCM 25 RGB B* -->
    <g transform="translate(0,258)">
      <circle cx="8"  cy="0" r="5" fill="#666"/>
      <circle cx="52" cy="0" r="6" fill="url(#goldPin)" stroke="#3498db"/>
      <text x="-12" y="4" text-anchor="end" class="pin-label-faint halo">MISO (21)</text>
      <text x="74"  y="4" class="pin-label-used halo" fill="#9fcdee">(22) BCM 25 RGB B</text>
    </g>

    <!-- Remaining pins shown faintly, no labels colored -->
    <g>
      <g transform="translate(0,283)"><circle cx="8" cy="0" r="5" fill="#555"/><circle cx="52" cy="0" r="5" fill="#555"/><text x="-12" y="4" text-anchor="end" class="pin-label-faint halo">SCLK (23)</text><text x="74" y="4" class="pin-label-faint halo">(24) CE0</text></g>
      <g transform="translate(0,308)"><circle cx="8" cy="0" r="5" fill="#555"/><circle cx="52" cy="0" r="5" fill="#555"/><text x="-12" y="4" text-anchor="end" class="pin-label-faint halo">GND (25)</text><text x="74" y="4" class="pin-label-faint halo">(26) CE1</text></g>
      <g transform="translate(0,333)"><circle cx="8" cy="0" r="5" fill="#555"/><circle cx="52" cy="0" r="5" fill="#555"/><text x="-12" y="4" text-anchor="end" class="pin-label-faint halo">ID_SD (27)</text><text x="74" y="4" class="pin-label-faint halo">(28) ID_SC</text></g>
      <g transform="translate(0,358)"><circle cx="8" cy="0" r="5" fill="#555"/><circle cx="52" cy="0" r="5" fill="#555"/><text x="-12" y="4" text-anchor="end" class="pin-label-faint halo">BCM 5 (29)</text><text x="74" y="4" class="pin-label-faint halo">(30) GND</text></g>
      <g transform="translate(0,383)"><circle cx="8" cy="0" r="5" fill="#555"/><circle cx="52" cy="0" r="5" fill="#555"/><text x="-12" y="4" text-anchor="end" class="pin-label-faint halo">BCM 6 (31)</text><text x="74" y="4" class="pin-label-faint halo">(32) BCM 12</text></g>
      <g transform="translate(0,408)"><circle cx="8" cy="0" r="5" fill="#555"/><circle cx="52" cy="0" r="5" fill="#555"/><text x="-12" y="4" text-anchor="end" class="pin-label-faint halo">BCM 13 (33)</text><text x="74" y="4" class="pin-label-faint halo">(34) GND</text></g>
      <g transform="translate(0,433)"><circle cx="8" cy="0" r="5" fill="#555"/><circle cx="52" cy="0" r="5" fill="#555"/><text x="-12" y="4" text-anchor="end" class="pin-label-faint halo">BCM 19 (35)</text><text x="74" y="4" class="pin-label-faint halo">(36) BCM 16</text></g>
      <g transform="translate(0,458)"><circle cx="8" cy="0" r="5" fill="#555"/><circle cx="52" cy="0" r="5" fill="#555"/><text x="-12" y="4" text-anchor="end" class="pin-label-faint halo">BCM 26 (37)</text><text x="74" y="4" class="pin-label-faint halo">(38) BCM 20</text></g>
      <g transform="translate(0,483)"><circle cx="8" cy="0" r="5" fill="#555"/><circle cx="52" cy="0" r="5" fill="#555"/><text x="-12" y="4" text-anchor="end" class="pin-label-faint halo">GND (39)</text><text x="74" y="4" class="pin-label-faint halo">(40) BCM 21</text></g>
    </g>
  </g>

  <!-- ======================================================================
       Legend
       ====================================================================== -->
  <g id="legend" transform="translate(60,955)">
    <rect x="0" y="0" width="780" height="145" rx="8" fill="#fff8e6" stroke="#aa8" stroke-width="1"/>
    <text x="14" y="22" font-size="13" font-weight="bold" fill="#222">Wire colors</text>
    <g font-size="11" fill="#222">
      <line x1="14" y1="42"  x2="44" y2="42"  stroke="#d83232" stroke-width="4"/>
      <text x="50" y="46">3.3 V power (also feeds LED1 + pull-ups)</text>
      <line x1="14" y1="62"  x2="44" y2="62"  stroke="#1a1a1a" stroke-width="4"/>
      <text x="50" y="66">GND</text>
      <line x1="14" y1="82"  x2="44" y2="82"  stroke="#e6c200" stroke-width="4"/>
      <text x="50" y="86">Action button → U1.A1 (via R5 pull-up)</text>
      <line x1="14" y1="102" x2="44" y2="102" stroke="#1abc9c" stroke-width="4"/>
      <text x="50" y="106">Power toggle → U1.A2 (via R4 pull-up)</text>
      <line x1="14" y1="122" x2="44" y2="122" stroke="#e67e22" stroke-width="4"/>
      <text x="50" y="126">Pot wiper → ADS A0</text>

      <line x1="270" y1="42"  x2="300" y2="42"  stroke="#ff4f8b" stroke-width="4"/>
      <text x="306" y="46">RGB R (BCM 23)</text>
      <line x1="270" y1="62"  x2="300" y2="62"  stroke="#2ecc71" stroke-width="4"/>
      <text x="306" y="66">RGB G (BCM 24)</text>
      <line x1="270" y1="82"  x2="300" y2="82"  stroke="#3498db" stroke-width="4"/>
      <text x="306" y="86">RGB B (BCM 25)</text>
      <line x1="270" y1="102" x2="300" y2="102" stroke="#9b59b6" stroke-width="4"/>
      <text x="306" y="106">I²C SDA (BCM 2)</text>
      <line x1="270" y1="122" x2="300" y2="122" stroke="#8b572a" stroke-width="4"/>
      <text x="306" y="126">I²C SCL (BCM 3)</text>
    </g>

    <!-- Mini state-color legend so the diagram shows what colors mean at runtime -->
    <g transform="translate(500,30)">
      <text x="0" y="0" font-size="12" font-weight="bold" fill="#222">RGB LED color → mode</text>
      <g font-size="10" fill="#222">
        <circle cx="8"  cy="20" r="6" fill="#2ecc71"/>   <text x="22" y="24">Radio (playing)</text>
        <circle cx="8"  cy="40" r="6" fill="#3498db"/>   <text x="22" y="44">Librarian (listening)</text>
        <circle cx="8"  cy="60" r="6" fill="#f5a623"/>   <text x="22" y="64">Thinking (R+G amber)</text>
        <circle cx="8"  cy="80" r="6" fill="#1abc9c"/>   <text x="22" y="84">Speaking (G+B cyan)</text>
        <circle cx="8"  cy="100" r="6" fill="#e23"/>     <text x="22" y="104">Error (red, blinking)</text>
      </g>
    </g>
  </g>

  <!-- ======================================================================
       Notes / BOM
       ====================================================================== -->
  <g id="notes" transform="translate(870,955)">
    <rect x="0" y="0" width="600" height="145" rx="8" fill="#fff8e6" stroke="#aa8" stroke-width="1"/>
    <text x="14" y="22" font-size="13" font-weight="bold" fill="#222">Bill of materials &amp; notes</text>
    <g font-size="11" fill="#222">
      <text x="14" y="42">• 1 × 8 mm common-anode RGB LED (4-lead) + 3 × 330 Ω resistor (¼ W)</text>
      <text x="14" y="58">• 1 × momentary push-button — short = next, long ≥ 1 s = Librarian mode</text>
      <text x="14" y="74">• 1 × SPST toggle switch — closed wakes the device; open puts it in standby</text>
      <text x="14" y="90">• 1 × 10 kΩ linear potentiometer + 1 × ADS1115 I²C ADC + 2 × 10 kΩ pull-up (R4, R5)</text>
      <text x="14" y="108" fill="#a52" font-style="italic">Switches read via U1.A1 / U1.A2 (not GPIO) — Tegra234 GPIO INPUT has a loopback bug on JP 6.2.x.</text>
      <text x="14" y="125" fill="#555" font-style="italic">USB DAC plugs into a Jetson USB-A port (no GPIO wiring) — see "DAC plugs in here" label.</text>
    </g>
  </g>
</svg>
