<?xml version="1.0" encoding="UTF-8"?>
<svg xmlns="http://www.w3.org/2000/svg" viewBox="0 0 1500 1100" font-family="'Helvetica Neue', Arial, sans-serif">
  <!-- ==================== background ==================== -->
  <rect width="1500" height="1100" fill="#f4ecd6"/>

  <!-- ==================== title ==================== -->
  <text x="750" y="42" text-anchor="middle" font-size="26" font-weight="bold" fill="#222">
    Radio Oracle — Jetson Orin Nano Wiring
  </text>
  <text x="750" y="68" text-anchor="middle" font-size="14" fill="#555">
    LEDs · Push-to-Talk Button · Volume Potentiometer (via ADS1115 I²C ADC)
  </text>
  <text x="750" y="88" text-anchor="middle" font-size="12" fill="#777" font-style="italic">
    Pin numbers are BCM (matches oracle/config/settings.py); header position numbers shown in parentheses
  </text>

  <!-- ==================== defs ==================== -->
  <defs>
    <linearGradient id="boardGrad" x1="0" y1="0" x2="0" y2="1">
      <stop offset="0%" stop-color="#1f4d2c"/>
      <stop offset="100%" stop-color="#0e3318"/>
    </linearGradient>
    <linearGradient id="metalGrad" x1="0" y1="0" x2="0" y2="1">
      <stop offset="0%" stop-color="#bbb"/>
      <stop offset="100%" stop-color="#777"/>
    </linearGradient>
    <linearGradient id="goldPin" x1="0" y1="0" x2="1" y2="1">
      <stop offset="0%" stop-color="#ffe48a"/>
      <stop offset="100%" stop-color="#b78a1a"/>
    </linearGradient>
    <radialGradient id="ledRed" cx="0.35" cy="0.35" r="0.7">
      <stop offset="0%" stop-color="#ffb3b3"/>
      <stop offset="60%" stop-color="#e23"/>
      <stop offset="100%" stop-color="#700"/>
    </radialGradient>
    <radialGradient id="ledAmber" cx="0.35" cy="0.35" r="0.7">
      <stop offset="0%" stop-color="#fff0a8"/>
      <stop offset="60%" stop-color="#f5a623"/>
      <stop offset="100%" stop-color="#7a4400"/>
    </radialGradient>
    <radialGradient id="ledGreen" cx="0.35" cy="0.35" r="0.7">
      <stop offset="0%" stop-color="#c5f5c5"/>
      <stop offset="60%" stop-color="#3c3"/>
      <stop offset="100%" stop-color="#063"/>
    </radialGradient>
  </defs>

  <!-- ==================== Jetson board ==================== -->
  <g id="jetson">
    <rect x="60" y="120" width="380" height="780" rx="14"
          fill="url(#boardGrad)" stroke="#0a2410" stroke-width="2"/>
    <text x="250" y="155" text-anchor="middle" font-size="20" font-weight="bold" fill="#fff">
      Jetson Orin Nano Super
    </text>
    <text x="250" y="178" text-anchor="middle" font-size="12" fill="#cdd">
      8 GB · 40-pin GPIO header (J12)
    </text>

    <!-- SoC -->
    <rect x="105" y="220" width="170" height="170" rx="6" fill="#1a1a1a" stroke="#444"/>
    <text x="190" y="313" text-anchor="middle" font-size="13" fill="#aaa">NVIDIA Tegra</text>

    <!-- USB-A stack (stylized) -->
    <g transform="translate(80, 720)">
      <rect x="0" y="0" width="70" height="55" rx="3" fill="#222" stroke="#000"/>
      <rect x="6" y="8" width="58" height="18" fill="#888"/>
      <rect x="6" y="32" width="58" height="18" fill="#888"/>
      <text x="35" y="78" text-anchor="middle" font-size="10" fill="#ccc">USB-A ×2</text>
    </g>

    <!-- Network / power placeholders -->
    <rect x="170" y="730" width="80" height="35" rx="3" fill="#222" stroke="#000"/>
    <text x="210" y="785" text-anchor="middle" font-size="10" fill="#ccc">RJ45</text>
    <rect x="280" y="735" width="40" height="25" rx="3" fill="#222" stroke="#000"/>
    <text x="300" y="782" text-anchor="middle" font-size="10" fill="#ccc">DC-in</text>
  </g>

  <!-- ==================== 40-pin header ==================== -->
  <!-- header sits at the right edge of the board; rows are spaced 25px -->
  <g id="header" transform="translate(360,210)">
    <rect x="-8" y="-12" width="80" height="510" fill="#0a0a0a" stroke="#000"/>
    <text x="32" y="-22" text-anchor="middle" font-size="11" fill="#ccc">40-pin</text>

    <!-- Generate 20 rows of pins. Each row has odd pin (left col, x=8) and even pin (right col, x=52). -->
    <!-- Pin label rules: highlight used pins; gray-out the rest. -->

    <!-- Row 0 (pins 1, 2): pin1 = 3.3V (USED), pin2 = 5V -->
    <g transform="translate(0,8)">
      <circle cx="8"  cy="0" r="6" fill="url(#goldPin)" stroke="#5a3"/>
      <circle cx="52" cy="0" r="6" fill="url(#goldPin)" stroke="#444"/>
      <text x="-12" y="4" text-anchor="end" font-size="10" fill="#9f9" font-weight="bold">3V3 (1)</text>
      <text x="74"  y="4" font-size="10" fill="#888">(2) 5V</text>
    </g>
    <!-- Row 1 (pins 3, 4): pin3 = SDA1 (USED), pin4 = 5V -->
    <g transform="translate(0,33)">
      <circle cx="8"  cy="0" r="6" fill="url(#goldPin)" stroke="#a5f"/>
      <circle cx="52" cy="0" r="6" fill="url(#goldPin)" stroke="#444"/>
      <text x="-12" y="4" text-anchor="end" font-size="10" fill="#caf" font-weight="bold">BCM 2 SDA (3)</text>
      <text x="74"  y="4" font-size="10" fill="#888">(4) 5V</text>
    </g>
    <!-- Row 2 (pins 5, 6): pin5 = SCL1 (USED), pin6 = GND (USED) -->
    <g transform="translate(0,58)">
      <circle cx="8"  cy="0" r="6" fill="url(#goldPin)" stroke="#a83"/>
      <circle cx="52" cy="0" r="6" fill="url(#goldPin)" stroke="#000"/>
      <text x="-12" y="4" text-anchor="end" font-size="10" fill="#fc9" font-weight="bold">BCM 3 SCL (5)</text>
      <text x="74"  y="4" font-size="10" fill="#222" font-weight="bold">(6) GND</text>
    </g>
    <!-- Row 3 (pins 7, 8) -->
    <g transform="translate(0,83)">
      <circle cx="8"  cy="0" r="5" fill="#666"/>
      <circle cx="52" cy="0" r="5" fill="#666"/>
      <text x="-12" y="4" text-anchor="end" font-size="9" fill="#888">BCM 4 (7)</text>
      <text x="74"  y="4" font-size="9" fill="#888">(8) TX</text>
    </g>
    <!-- Row 4 (pins 9, 10): pin9 = GND (available) -->
    <g transform="translate(0,108)">
      <circle cx="8"  cy="0" r="5" fill="#666"/>
      <circle cx="52" cy="0" r="5" fill="#666"/>
      <text x="-12" y="4" text-anchor="end" font-size="9" fill="#888">GND (9)</text>
      <text x="74"  y="4" font-size="9" fill="#888">(10) RX</text>
    </g>
    <!-- Row 5 (pins 11, 12): pin12 = BCM 18 (USED — PTT button) -->
    <g transform="translate(0,133)">
      <circle cx="8"  cy="0" r="5" fill="#666"/>
      <circle cx="52" cy="0" r="6" fill="url(#goldPin)" stroke="#dd3"/>
      <text x="-12" y="4" text-anchor="end" font-size="9" fill="#888">BCM 17 (11)</text>
      <text x="74"  y="4" font-size="10" fill="#ff6" font-weight="bold">(12) BCM 18 — PTT</text>
    </g>
    <!-- Row 6 (pins 13, 14): pin14 = GND (USED) -->
    <g transform="translate(0,158)">
      <circle cx="8"  cy="0" r="5" fill="#666"/>
      <circle cx="52" cy="0" r="6" fill="url(#goldPin)" stroke="#000"/>
      <text x="-12" y="4" text-anchor="end" font-size="9" fill="#888">BCM 27 (13)</text>
      <text x="74"  y="4" font-size="10" fill="#222" font-weight="bold">(14) GND</text>
    </g>
    <!-- Row 7 (pins 15, 16): pin16 = BCM 23 (USED — LED idle) -->
    <g transform="translate(0,183)">
      <circle cx="8"  cy="0" r="5" fill="#666"/>
      <circle cx="52" cy="0" r="6" fill="url(#goldPin)" stroke="#3c3"/>
      <text x="-12" y="4" text-anchor="end" font-size="9" fill="#888">BCM 22 (15)</text>
      <text x="74"  y="4" font-size="10" fill="#9f9" font-weight="bold">(16) BCM 23 — LED idle</text>
    </g>
    <!-- Row 8 (pins 17, 18): pin17 = 3.3V (available), pin18 = BCM 24 (USED — LED listen) -->
    <g transform="translate(0,208)">
      <circle cx="8"  cy="0" r="5" fill="#666"/>
      <circle cx="52" cy="0" r="6" fill="url(#goldPin)" stroke="#e44"/>
      <text x="-12" y="4" text-anchor="end" font-size="9" fill="#888">3V3 (17)</text>
      <text x="74"  y="4" font-size="10" fill="#fbb" font-weight="bold">(18) BCM 24 — LED listen</text>
    </g>
    <!-- Row 9 (pins 19, 20): pin20 = GND (available) -->
    <g transform="translate(0,233)">
      <circle cx="8"  cy="0" r="5" fill="#666"/>
      <circle cx="52" cy="0" r="5" fill="#666"/>
      <text x="-12" y="4" text-anchor="end" font-size="9" fill="#888">MOSI (19)</text>
      <text x="74"  y="4" font-size="9" fill="#888">(20) GND</text>
    </g>
    <!-- Row 10 (pins 21, 22): pin22 = BCM 25 (USED — LED think) -->
    <g transform="translate(0,258)">
      <circle cx="8"  cy="0" r="5" fill="#666"/>
      <circle cx="52" cy="0" r="6" fill="url(#goldPin)" stroke="#fa3"/>
      <text x="-12" y="4" text-anchor="end" font-size="9" fill="#888">MISO (21)</text>
      <text x="74"  y="4" font-size="10" fill="#fc8" font-weight="bold">(22) BCM 25 — LED think</text>
    </g>

    <!-- Remaining pins (23..40) shown faintly for reference -->
    <g font-size="9" fill="#777">
      <g transform="translate(0,283)">
        <circle cx="8" cy="0" r="5" fill="#555"/><circle cx="52" cy="0" r="5" fill="#555"/>
        <text x="-12" y="4" text-anchor="end">SCLK (23)</text><text x="74" y="4">(24) CE0</text>
      </g>
      <g transform="translate(0,308)">
        <circle cx="8" cy="0" r="5" fill="#555"/><circle cx="52" cy="0" r="5" fill="#555"/>
        <text x="-12" y="4" text-anchor="end">GND (25)</text><text x="74" y="4">(26) CE1</text>
      </g>
      <g transform="translate(0,333)">
        <circle cx="8" cy="0" r="5" fill="#555"/><circle cx="52" cy="0" r="5" fill="#555"/>
        <text x="-12" y="4" text-anchor="end">ID_SD (27)</text><text x="74" y="4">(28) ID_SC</text>
      </g>
      <g transform="translate(0,358)">
        <circle cx="8" cy="0" r="5" fill="#555"/><circle cx="52" cy="0" r="5" fill="#555"/>
        <text x="-12" y="4" text-anchor="end">BCM 5 (29)</text><text x="74" y="4">(30) GND</text>
      </g>
      <g transform="translate(0,383)">
        <circle cx="8" cy="0" r="5" fill="#555"/><circle cx="52" cy="0" r="5" fill="#555"/>
        <text x="-12" y="4" text-anchor="end">BCM 6 (31)</text><text x="74" y="4">(32) BCM 12</text>
      </g>
      <g transform="translate(0,408)">
        <circle cx="8" cy="0" r="5" fill="#555"/><circle cx="52" cy="0" r="5" fill="#555"/>
        <text x="-12" y="4" text-anchor="end">BCM 13 (33)</text><text x="74" y="4">(34) GND</text>
      </g>
      <g transform="translate(0,433)">
        <circle cx="8" cy="0" r="5" fill="#555"/><circle cx="52" cy="0" r="5" fill="#555"/>
        <text x="-12" y="4" text-anchor="end">BCM 19 (35)</text><text x="74" y="4">(36) BCM 16</text>
      </g>
      <g transform="translate(0,458)">
        <circle cx="8" cy="0" r="5" fill="#555"/><circle cx="52" cy="0" r="5" fill="#555"/>
        <text x="-12" y="4" text-anchor="end">BCM 26 (37)</text><text x="74" y="4">(38) BCM 20</text>
      </g>
      <g transform="translate(0,483)">
        <circle cx="8" cy="0" r="5" fill="#555"/><circle cx="52" cy="0" r="5" fill="#555"/>
        <text x="-12" y="4" text-anchor="end">GND (39)</text><text x="74" y="4">(40) BCM 21</text>
      </g>
    </g>
  </g>

  <!-- ==================== Wires ==================== -->
  <!--
    All wires exit the right side of the header. Header right column is at x = 360+52 = 412.
    Wires use orthogonal routing with rounded corners. Stroke widths chunky for readability.
    Color key:
      red    = 3.3V power
      black  = GND
      yellow = PTT signal (BCM 18)
      green  = LED idle  (BCM 23)
      pink   = LED listen (BCM 24)
      orange = LED think (BCM 25)
      purple = I2C SDA
      brown  = I2C SCL
  -->
  <g fill="none" stroke-width="3.5" stroke-linecap="round" stroke-linejoin="round">

    <!-- 3.3V to ADS1115 VDD (from pin 1) -->
    <path d="M 368 218 L 480 218 L 480 880 L 1140 880 L 1140 820"
          stroke="#d83232"/>
    <!-- I2C SDA (BCM 2, pin 3) to ADS1115 SDA -->
    <path d="M 368 243 L 500 243 L 500 900 L 1170 900 L 1170 820"
          stroke="#9b59b6"/>
    <!-- I2C SCL (BCM 3, pin 5) to ADS1115 SCL -->
    <path d="M 368 268 L 520 268 L 520 920 L 1200 920 L 1200 820"
          stroke="#8b572a"/>
    <!-- GND (pin 6) — runs to a "ground rail" all components share -->
    <path d="M 412 268 L 700 268 L 700 990 L 1230 990 L 1230 820"
          stroke="#1a1a1a"/>
    <!-- branches off ground rail to other components -->
    <path d="M 700 990 L 700 720 L 770 720" stroke="#1a1a1a"/>      <!-- to button GND -->
    <path d="M 700 540 L 800 540" stroke="#1a1a1a"/>                <!-- to LED idle GND rail -->
    <path d="M 700 600 L 800 600" stroke="#1a1a1a"/>                <!-- to LED listen GND rail -->
    <path d="M 700 660 L 800 660" stroke="#1a1a1a"/>                <!-- to LED think GND rail -->

    <!-- BCM 18 (PTT button) — pin 12 -->
    <path d="M 412 343 L 740 343 L 740 700 L 770 700"
          stroke="#e6c200"/>

    <!-- BCM 23 (LED idle) — pin 16 -->
    <path d="M 412 393 L 760 393 L 760 540 L 800 540"
          stroke="#2ecc71"/>
    <!-- BCM 24 (LED listen) — pin 18 -->
    <path d="M 412 418 L 780 418 L 780 600 L 800 600"
          stroke="#e84393"/>
    <!-- BCM 25 (LED think) — pin 22 -->
    <path d="M 412 468 L 820 468 L 820 660"
          stroke="#e67e22"/>
  </g>

  <!-- ==================== LEDs ==================== -->
  <!-- Each LED group: anode (long lead) at top connects via resistor to GPIO; cathode (short) to GND.
       For active-HIGH drive: GPIO -> resistor -> LED anode -> LED cathode -> GND. -->

  <!-- LED idle (green) at y=540 -->
  <g id="led-idle" transform="translate(900,540)">
    <!-- resistor (between GPIO wire end and LED anode) -->
    <g transform="translate(-100,0)">
      <line x1="0" y1="0" x2="14" y2="0" stroke="#999" stroke-width="2"/>
      <rect x="14" y="-9" width="56" height="18" rx="2" fill="#dcb67a" stroke="#222"/>
      <rect x="20" y="-9" width="3" height="18" fill="#000"/>
      <rect x="28" y="-9" width="3" height="18" fill="orange"/>
      <rect x="36" y="-9" width="3" height="18" fill="orange"/>
      <rect x="44" y="-9" width="3" height="18" fill="brown"/>
      <line x1="70" y1="0" x2="84" y2="0" stroke="#999" stroke-width="2"/>
      <text x="42" y="-14" text-anchor="middle" font-size="10" fill="#444">330 Ω</text>
    </g>
    <!-- LED bulb -->
    <ellipse cx="0" cy="0" rx="18" ry="22" fill="url(#ledGreen)" stroke="#063" stroke-width="1.5"/>
    <ellipse cx="-5" cy="-7" rx="5" ry="3" fill="#fff" opacity="0.5"/>
    <!-- leads from bulb -->
    <line x1="-5" y1="22" x2="-5" y2="40" stroke="#bbb" stroke-width="2"/>
    <line x1="5" y1="22" x2="5" y2="40" stroke="#bbb" stroke-width="2"/>
    <text x="40" y="5" font-size="13" font-weight="bold" fill="#222">LED — idle</text>
    <text x="40" y="22" font-size="10" fill="#666">5 mm green</text>
  </g>

  <!-- LED listen (red) -->
  <g id="led-listen" transform="translate(900,600)">
    <g transform="translate(-100,0)">
      <line x1="0" y1="0" x2="14" y2="0" stroke="#999" stroke-width="2"/>
      <rect x="14" y="-9" width="56" height="18" rx="2" fill="#dcb67a" stroke="#222"/>
      <rect x="20" y="-9" width="3" height="18" fill="#000"/>
      <rect x="28" y="-9" width="3" height="18" fill="orange"/>
      <rect x="36" y="-9" width="3" height="18" fill="orange"/>
      <rect x="44" y="-9" width="3" height="18" fill="brown"/>
      <line x1="70" y1="0" x2="84" y2="0" stroke="#999" stroke-width="2"/>
      <text x="42" y="-14" text-anchor="middle" font-size="10" fill="#444">330 Ω</text>
    </g>
    <ellipse cx="0" cy="0" rx="18" ry="22" fill="url(#ledRed)" stroke="#700" stroke-width="1.5"/>
    <ellipse cx="-5" cy="-7" rx="5" ry="3" fill="#fff" opacity="0.5"/>
    <line x1="-5" y1="22" x2="-5" y2="40" stroke="#bbb" stroke-width="2"/>
    <line x1="5" y1="22" x2="5" y2="40" stroke="#bbb" stroke-width="2"/>
    <text x="40" y="5" font-size="13" font-weight="bold" fill="#222">LED — listening</text>
    <text x="40" y="22" font-size="10" fill="#666">5 mm red</text>
  </g>

  <!-- LED think (amber) -->
  <g id="led-think" transform="translate(900,660)">
    <g transform="translate(-100,0)">
      <line x1="0" y1="0" x2="14" y2="0" stroke="#999" stroke-width="2"/>
      <rect x="14" y="-9" width="56" height="18" rx="2" fill="#dcb67a" stroke="#222"/>
      <rect x="20" y="-9" width="3" height="18" fill="#000"/>
      <rect x="28" y="-9" width="3" height="18" fill="orange"/>
      <rect x="36" y="-9" width="3" height="18" fill="orange"/>
      <rect x="44" y="-9" width="3" height="18" fill="brown"/>
      <line x1="70" y1="0" x2="84" y2="0" stroke="#999" stroke-width="2"/>
      <text x="42" y="-14" text-anchor="middle" font-size="10" fill="#444">330 Ω</text>
    </g>
    <ellipse cx="0" cy="0" rx="18" ry="22" fill="url(#ledAmber)" stroke="#7a4400" stroke-width="1.5"/>
    <ellipse cx="-5" cy="-7" rx="5" ry="3" fill="#fff" opacity="0.5"/>
    <line x1="-5" y1="22" x2="-5" y2="40" stroke="#bbb" stroke-width="2"/>
    <line x1="5" y1="22" x2="5" y2="40" stroke="#bbb" stroke-width="2"/>
    <text x="40" y="5" font-size="13" font-weight="bold" fill="#222">LED — thinking</text>
    <text x="40" y="22" font-size="10" fill="#666">5 mm amber</text>
  </g>

  <!-- ==================== PTT button ==================== -->
  <g id="button" transform="translate(880,720)">
    <rect x="-110" y="-40" width="220" height="80" rx="8" fill="#222" stroke="#000" stroke-width="2"/>
    <circle cx="0" cy="0" r="22" fill="#a92" stroke="#5a3a05" stroke-width="3"/>
    <circle cx="0" cy="0" r="14" fill="#c93"/>
    <text x="0" y="4" text-anchor="middle" font-size="11" font-weight="bold" fill="#1a0d00">PTT</text>
    <text x="0" y="58" text-anchor="middle" font-size="13" font-weight="bold" fill="#222">Push-to-Talk Button</text>
    <text x="0" y="74" text-anchor="middle" font-size="10" fill="#666">Momentary, normally-open · uses internal pull-up</text>
    <!-- terminals -->
    <line x1="-90" y1="0" x2="-110" y2="0" stroke="#bbb" stroke-width="3"/>
    <text x="-115" y="-10" text-anchor="end" font-size="10" fill="#444">to BCM 18</text>
    <line x1="90" y1="0" x2="110" y2="0" stroke="#bbb" stroke-width="3"/>
    <text x="115" y="-10" font-size="10" fill="#444">to GND</text>
  </g>

  <!-- ==================== Volume potentiometer + ADS1115 ==================== -->
  <g id="pot" transform="translate(990,820)">
    <!-- knob body -->
    <circle cx="0" cy="0" r="34" fill="#5a4632" stroke="#1a0e00" stroke-width="3"/>
    <circle cx="0" cy="0" r="24" fill="#3a2a18"/>
    <line x1="0" y1="0" x2="18" y2="-18" stroke="#fff8d0" stroke-width="4" stroke-linecap="round"/>
    <text x="0" y="58" text-anchor="middle" font-size="12" font-weight="bold" fill="#222">Volume Potentiometer</text>
    <text x="0" y="73" text-anchor="middle" font-size="10" fill="#666">10 kΩ linear · 3 terminal</text>
    <!-- terminals -->
    <line x1="-30" y1="30" x2="-30" y2="55" stroke="#bbb" stroke-width="2"/>
    <line x1="0"   y1="34" x2="0"   y2="55" stroke="#bbb" stroke-width="2"/>
    <line x1="30"  y1="30" x2="30"  y2="55" stroke="#bbb" stroke-width="2"/>
    <text x="-30" y="50" text-anchor="middle" font-size="9" fill="#444">CW</text>
    <text x="0"   y="50" text-anchor="middle" font-size="9" fill="#444">W</text>
    <text x="30"  y="50" text-anchor="middle" font-size="9" fill="#444">CCW</text>
  </g>

  <g id="ads1115" transform="translate(1180,820)">
    <rect x="-65" y="-40" width="130" height="80" rx="4" fill="#1f3a5a" stroke="#000" stroke-width="2"/>
    <text x="0" y="-15" text-anchor="middle" font-size="13" font-weight="bold" fill="#fff">ADS1115</text>
    <text x="0" y="2" text-anchor="middle" font-size="10" fill="#cdd">16-bit I²C ADC</text>
    <text x="0" y="18" text-anchor="middle" font-size="9" fill="#9bf">A0 ← pot wiper</text>
    <!-- pin row at top of breakout -->
    <g font-size="8" fill="#fff">
      <circle cx="-50" cy="-40" r="3" fill="#d83232"/><text x="-50" y="-46" text-anchor="middle">VDD</text>
      <circle cx="-30" cy="-40" r="3" fill="#9b59b6"/><text x="-30" y="-46" text-anchor="middle">SDA</text>
      <circle cx="-10" cy="-40" r="3" fill="#8b572a"/><text x="-10" y="-46" text-anchor="middle">SCL</text>
      <circle cx="10"  cy="-40" r="3" fill="#1a1a1a"/><text x="10"  y="-46" text-anchor="middle">GND</text>
      <circle cx="30"  cy="-40" r="3" fill="#3498db"/><text x="30"  y="-46" text-anchor="middle">A0</text>
    </g>
  </g>

  <!-- pot wiper -> ADS A0 (blue) -->
  <path d="M 990 880 L 990 970 L 1210 970 L 1210 780"
        fill="none" stroke="#3498db" stroke-width="3.5" stroke-linecap="round"/>
  <!-- pot CCW (right, GND) -> ground rail -->
  <path d="M 1020 880 L 1020 990 L 1230 990"
        fill="none" stroke="#1a1a1a" stroke-width="3.5" stroke-linecap="round"/>
  <!-- pot CW (left, +3V3) -> ADS VDD pin -->
  <path d="M 960 880 L 960 945 L 1130 945 L 1130 780"
        fill="none" stroke="#d83232" stroke-width="3.5" stroke-linecap="round"/>

  <!-- ==================== Legend ==================== -->
  <g id="legend" transform="translate(60,950)">
    <rect x="0" y="0" width="780" height="130" rx="8" fill="#fff8e6" stroke="#aa8" stroke-width="1"/>
    <text x="14" y="22" font-size="13" font-weight="bold" fill="#222">Wire colors</text>
    <g font-size="11" fill="#222">
      <line x1="14" y1="42" x2="44" y2="42" stroke="#d83232" stroke-width="4"/>
      <text x="50" y="46">3.3 V power</text>
      <line x1="14" y1="62" x2="44" y2="62" stroke="#1a1a1a" stroke-width="4"/>
      <text x="50" y="66">GND</text>
      <line x1="14" y1="82" x2="44" y2="82" stroke="#e6c200" stroke-width="4"/>
      <text x="50" y="86">PTT signal (BCM 18)</text>
      <line x1="14" y1="102" x2="44" y2="102" stroke="#9b59b6" stroke-width="4"/>
      <text x="50" y="106">I²C SDA (BCM 2)</text>

      <line x1="200" y1="42" x2="230" y2="42" stroke="#2ecc71" stroke-width="4"/>
      <text x="236" y="46">LED idle (BCM 23)</text>
      <line x1="200" y1="62" x2="230" y2="62" stroke="#e84393" stroke-width="4"/>
      <text x="236" y="66">LED listen (BCM 24)</text>
      <line x1="200" y1="82" x2="230" y2="82" stroke="#e67e22" stroke-width="4"/>
      <text x="236" y="86">LED think (BCM 25)</text>
      <line x1="200" y1="102" x2="230" y2="102" stroke="#8b572a" stroke-width="4"/>
      <text x="236" y="106">I²C SCL (BCM 3)</text>

      <line x1="400" y1="42" x2="430" y2="42" stroke="#3498db" stroke-width="4"/>
      <text x="436" y="46">Pot wiper → ADC A0</text>
    </g>
  </g>

  <!-- ==================== Notes / BOM ==================== -->
  <g id="notes" transform="translate(870,950)">
    <rect x="0" y="0" width="600" height="130" rx="8" fill="#fff8e6" stroke="#aa8" stroke-width="1"/>
    <text x="14" y="22" font-size="13" font-weight="bold" fill="#222">Bill of materials &amp; notes</text>
    <g font-size="11" fill="#222">
      <text x="14" y="42">• 3 × 5 mm LED (green / red / amber) + 3 × 330 Ω resistor (¼ W)</text>
      <text x="14" y="58">• 1 × momentary push-button (12 mm panel-mount works well in a radio enclosure)</text>
      <text x="14" y="74">• 1 × 10 kΩ linear potentiometer + 1 × ADS1115 I²C ADC breakout</text>
      <text x="14" y="92" fill="#a52" font-style="italic">Tip: a rotary encoder on 2 GPIO pins skips the ADC entirely if you don't need a true analog pot.</text>
    </g>
  </g>
</svg>
